HIERARCHY
ROOT hip
{
  OFFSET 0 0 0
  CHANNELS 6 Xposition Yposition Zposition Zrotation Yrotation Xrotation
  JOINT abdomen
  {
    OFFSET 0 20.6881 -0.73152
    CHANNELS 3 Zrotation Xrotation Yrotation
    JOINT chest
    {
      OFFSET 0 11.7043 -0.48768
      CHANNELS 3 Zrotation Xrotation Yrotation
      JOINT neck
      {
        OFFSET 0 22.1894 -2.19456
        CHANNELS 3 Zrotation Xrotation Yrotation
        JOINT head
        {
          OFFSET -0.24384 7.07133 1.2192
          CHANNELS 3 Zrotation Xrotation Yrotation
          JOINT leftEye
          {
            OFFSET 4.14528 8.04674 8.04672
            CHANNELS 3 Zrotation Xrotation Yrotation
            End Site
            {
              OFFSET 1 0 0
            }
          }
          JOINT rightEye
          {
            OFFSET -3.6576 8.04674 8.04672
            CHANNELS 3 Zrotation Xrotation Yrotation
            End Site
            {
              OFFSET 1 0 0
            }
          }
        }
      }
      JOINT rCollar
      {
        OFFSET -2.68224 19.2634 -4.8768
        CHANNELS 3 Zrotation Xrotation Yrotation
        JOINT rShldr
        {
          OFFSET -8.77824 -1.95073 1.46304
          CHANNELS 3 Zrotation Xrotation Yrotation
          JOINT rForeArm
          {
            OFFSET -28.1742 -1.7115 0.48768
            CHANNELS 3 Zrotation Xrotation Yrotation
            JOINT rHand
            {
              OFFSET -22.5879 0.773209 7.07136
              CHANNELS 3 Zrotation Xrotation Yrotation
              JOINT rThumb1
              {
                OFFSET -1.2192 -0.487915 3.41376
                CHANNELS 3 Zrotation Xrotation Yrotation
                JOINT rThumb2
                {
                  OFFSET -3.37035 -0.52449 3.41376
                  CHANNELS 3 Zrotation Xrotation Yrotation
                  End Site
                  {
                    OFFSET -1.78271 -1.18214 1.43049
                  }
                }
              }
              JOINT rIndex1
              {
                OFFSET -7.75947 0.938293 5.60832
                CHANNELS 3 Zrotation Xrotation Yrotation
                JOINT rIndex2
                {
                  OFFSET -2.54057 -0.884171 1.56538
                  CHANNELS 3 Zrotation Xrotation Yrotation
                  End Site
                  {
                    OFFSET -1.62519 -0.234802 1.16502
                  }
                }
              }
              JOINT rMid1
              {
                OFFSET -8.24714 1.18213 3.41376
                CHANNELS 3 Zrotation Xrotation Yrotation
                JOINT rMid2
                {
                  OFFSET -3.10165 -0.590103 1.0647
                  CHANNELS 3 Zrotation Xrotation Yrotation
                  End Site
                  {
                    OFFSET -2.48547 -0.328903 0.83742
                  }
                }
              }
              JOINT rRing1
              {
                OFFSET -8.82822 0.546677 1.51678
                CHANNELS 3 Zrotation Xrotation Yrotation
                JOINT rRing2
                {
                  OFFSET -2.60934 -0.819778 -0.0198488
                  CHANNELS 3 Zrotation Xrotation Yrotation
                  End Site
                  {
                    OFFSET -2.33842 -0.294052 0.168128
                  }
                }
              }
              JOINT rPinky1
              {
                OFFSET -8.27202 -0.0477905 -0.4584
                CHANNELS 3 Zrotation Xrotation Yrotation
                JOINT rPinky2
                {
                  OFFSET -1.82734 -0.647385 -0.700984
                  CHANNELS 3 Zrotation Xrotation Yrotation
                  End Site
                  {
                    OFFSET -1.69225 -0.51767 -0.607171
                  }
                }
              }
            }
          }
        }
      }
      JOINT lCollar
      {
        OFFSET 2.68224 19.2634 -4.8768
        CHANNELS 3 Zrotation Xrotation Yrotation
        JOINT lShldr
        {
          OFFSET 8.77824 -1.95073 1.46304
          CHANNELS 3 Zrotation Xrotation Yrotation
          JOINT lForeArm
          {
            OFFSET 28.1742 -1.7115 0.48768
            CHANNELS 3 Zrotation Xrotation Yrotation
            JOINT lHand
            {
              OFFSET 22.5879 0.773209 7.07136
              CHANNELS 3 Zrotation Xrotation Yrotation
              JOINT lThumb1
              {
                OFFSET 1.2192 -0.487915 3.41376
                CHANNELS 3 Zrotation Xrotation Yrotation
                JOINT lThumb2
                {
                  OFFSET 3.37035 -0.52449 3.41376
                  CHANNELS 3 Zrotation Xrotation Yrotation
                  End Site
                  {
                    OFFSET 1.78271 -1.18214 1.43049
                  }
                }
              }
              JOINT lIndex1
              {
                OFFSET 7.75947 0.938293 5.60832
                CHANNELS 3 Zrotation Xrotation Yrotation
                JOINT lIndex2
                {
                  OFFSET 2.54057 -0.884171 1.56538
                  CHANNELS 3 Zrotation Xrotation Yrotation
                  End Site
                  {
                    OFFSET 1.62519 -0.234802 1.16502
                  }
                }
              }
              JOINT lMid1
              {
                OFFSET 8.24714 1.18213 3.41376
                CHANNELS 3 Zrotation Xrotation Yrotation
                JOINT lMid2
                {
                  OFFSET 3.10165 -0.590103 1.0647
                  CHANNELS 3 Zrotation Xrotation Yrotation
                  End Site
                  {
                    OFFSET 2.48547 -0.328903 0.83742
                  }
                }
              }
              JOINT lRing1
              {
                OFFSET 8.82822 0.546677 1.51678
                CHANNELS 3 Zrotation Xrotation Yrotation
                JOINT lRing2
                {
                  OFFSET 2.60934 -0.819778 -0.0198488
                  CHANNELS 3 Zrotation Xrotation Yrotation
                  End Site
                  {
                    OFFSET 2.33842 -0.294052 0.168128
                  }
                }
              }
              JOINT lPinky1
              {
                OFFSET 8.27202 -0.0477905 -0.4584
                CHANNELS 3 Zrotation Xrotation Yrotation
                JOINT lPinky2
                {
                  OFFSET 1.82734 -0.647385 -0.700984
                  CHANNELS 3 Zrotation Xrotation Yrotation
                  End Site
                  {
                    OFFSET 1.69225 -0.51767 -0.607171
                  }
                }
              }
            }
          }
        }
      }
    }
  }
  JOINT rButtock
  {
    OFFSET -8.77824 4.35084 1.2192
    CHANNELS 3 Zrotation Xrotation Yrotation
    JOINT rThigh
    {
      OFFSET 0 -1.70687 -2.19456
      CHANNELS 3 Zrotation Xrotation Yrotation
      JOINT rShin
      {
        OFFSET 0 -36.8199 0.73152
        CHANNELS 3 Zrotation Xrotation Yrotation
        JOINT rFoot
        {
          OFFSET 0.73152 -45.1104 -5.12064
          CHANNELS 3 Zrotation Xrotation Yrotation
          End Site
          {
            OFFSET -1.1221 -3.69964 12.103
          }
        }
      }
    }
  }
  JOINT lButtock
  {
    OFFSET 8.77824 4.35084 1.2192
    CHANNELS 3 Zrotation Xrotation Yrotation
    JOINT lThigh
    {
      OFFSET 0 -1.70687 -2.19456
      CHANNELS 3 Zrotation Xrotation Yrotation
      JOINT lShin
      {
        OFFSET 0 -36.8199 0.73152
        CHANNELS 3 Zrotation Xrotation Yrotation
        JOINT lFoot
        {
          OFFSET -0.73152 -45.1104 -5.12064
          CHANNELS 3 Zrotation Xrotation Yrotation
          End Site
          {
            OFFSET 1.1221 -3.69964 12.103
          }
        }
      }
    }
  }
}
MOTION
Frames:	4
Frame Time:	0.03333
22.5441 53.634800000000006 83.8555 166.487032 -47.05184 -163.744269 -15.908998 9.136707 1.920271 4.266727 -9.844015 3.462644 7.286002 29.352469 110.773807 -36.341607 25.072067 -147.481182 7.3e-05 0.0 0.001914 7.3e-05 0.0 0.001914 -5.825297 24.937178 6.990303 -29.965175 2.358762 43.195928 -27.635684 1.044351 -27.256162 33.829647 -47.813693 27.676751 -175.198117 -12.846205 89.807016 -135.749694 12.275608 68.571802 -158.401052 -30.156349 122.604268 -165.192374 -26.113112 119.065456 -158.521957 -0.192527 142.143779 179.920961 -48.680558 140.895622 0.006199 1.77135 0.556688 -155.972802 -7.861452 172.798449 -80.938984 -51.228801 -79.359823 -79.924077 -53.519956 -80.489404 143.620452 38.233152 -148.079994 -82.223765 -13.717023 -90.587626 -3.661081 -18.379972 -102.804937 12.792261 -35.197938 8.877606 159.652553 2.600594 -88.800138 23.041211 -33.374293 -11.208256 1.564321 2.495007 -0.906922 17.062965 31.659966 -12.774182 0.056927 0.168038 -0.031618 66.118491 63.776472 -58.851911 145.123662 1.080376 179.467846 155.63269 1.479775 179.41473 134.694004 -14.105523 132.114594 25.183449 -40.385341 26.969693 179.999262 75.749594 0.001548 146.89537 -0.322281 -0.0 3.976395 70.779496 35.560615 -100.021951 7.823775 28.560256 0.000271 -0.001685 -0.000348 13.010316 5.593349 -180.0 -1.987542 -45.334275 -47.201337 -24.168031 -6.003603 -106.426764
22.7913 53.575799999999994 83.9851 166.972928 -47.311813 -164.265895 -15.345055 9.449847 -0.0 4.436317 -9.693264 5.147577 7.308294 29.358262 110.754423 -36.381915 25.050722 -147.408407 -0.00172 -0.0 0.000896 0.003938 0.0 0.0 -48.791761 -86.434646 -70.454154 -118.596564 -7.962437 166.552607 -84.627297 -62.574883 -87.447222 9.751134 -7.324011 8.251228 83.254135 -50.257749 33.615964 -159.135381 -28.074377 127.366286 -46.208898 39.65305 36.317865 -94.595085 48.665529 70.612511 -36.034686 51.723879 29.831078 -173.339917 -35.019292 143.71754 -145.120749 2.054891 -179.774236 -55.235148 87.579479 68.286713 19.283766 66.825255 13.091112 -166.009809 66.158182 -148.012623 44.921214 -86.287565 66.529718 -130.732439 12.741123 138.723629 78.648781 -30.579377 -62.678258 175.284472 -72.477997 -163.532367 155.677534 6.392438 -87.887136 -7.430887 -48.621253 -18.729566 153.453412 -21.067428 -121.745165 61.905046 57.39662 -46.190066 -23.905845 -61.333452 -1.402084 88.798412 63.974454 -80.342247 -0.006304 1.771441 -0.556089 156.620583 -42.779237 -177.028248 140.388618 -1.531973 137.476096 84.88074 -52.01813 84.530392 -0.007319 -0.000788 -0.007319 -69.053817 -54.612428 -65.580439 16.780943 78.723157 106.232822 -154.687165 8.579606 117.27544 -179.998863 75.749226 -0.000778 -115.651826 75.019093 -63.293945 -9.271507 44.158283 -153.070788 149.798039 16.006415 155.489361
23.1854 53.4962 84.37259999999999 167.679119 -47.774789 -164.88962 -12.054513 7.450225 -90.784841 7.312092 1.967094 94.897344 -14.935423 26.896125 -74.116096 40.429622 -0.359729 32.568452 -0.003247 -0.0 0.002193 0.002415 0.0 0.001317 3.543018 -62.053038 -13.038463 -62.088248 51.107706 112.781695 9.563356 -82.478473 23.591072 -8.274974 48.329188 5.501737 -78.030818 38.689164 42.412559 24.400844 -26.647599 19.805798 73.422328 -73.56982 26.565757 -61.019444 53.632602 50.427685 -36.036817 51.723087 29.831951 -83.147908 64.251161 75.294073 -0.021936 -1.726085 -0.542219 10.454856 0.240231 -0.042763 12.632374 42.934131 10.53199 17.765968 54.193784 8.976911 -0.162784 -0.990024 0.218989 -88.672007 27.87426 37.988661 -89.396529 31.550471 -78.500398 47.570975 41.261569 -27.767939 93.743955 37.963751 -53.548311 4.219481 -16.735025 -26.901653 158.23072 -29.847898 -122.58939 -9.867197 5.472706 8.981264 0.057522 0.167861 -0.032474 34.364512 55.164307 -28.96684 70.37868 -72.131526 87.279129 -13.864644 29.73901 0.476284 86.171853 -50.467162 84.539712 147.148548 13.916289 143.163598 -179.994607 75.750293 -0.005564 148.961167 -0.727525 -88.791264 -74.985483 -6.857338 31.853995 -26.292313 -69.974786 76.308225 -0.041452 0.000878 -0.031089 13.512149 4.491388 108.049602 48.371385 -10.287791 82.890034 114.335357 42.569643 151.59818
23.7262 53.3489 85.1186 168.796325 -48.505736 -165.588449 -13.11396 10.239169 1.824484 3.963991 -9.811515 2.652104 6.729618 31.396605 122.7891 -33.924195 32.473472 -157.826796 0.00185 0.0 0.004376 0.00185 0.0 0.004376 -59.833164 -86.72125 -81.633787 -118.982533 -7.842322 166.649228 -14.443269 3.091253 -44.910631 97.707212 -63.60779 88.330859 -15.474408 14.199052 4.248574 31.485142 -36.329453 -6.817735 -43.648441 38.803418 34.060197 -10.965228 23.610626 4.867029 -0.219191 0.638599 0.121994 -4.952124 21.320687 4.411535 -73.162073 -72.14303 -90.197888 -68.814562 -82.376775 -94.802307 -132.046404 -18.854333 -129.577835 -137.245723 -12.314487 -134.253738 -0.034745 -0.209433 0.046519 -72.945313 6.103875 33.740653 -163.950752 -7.962171 -37.345478 137.654139 40.488956 -118.375671 5.17505 5.020176 -1.01633 -39.318235 -56.409313 14.091157 27.171208 30.46943 -19.889403 178.789412 -31.988378 -108.249917 6.647597 17.108562 -4.326469 174.486518 -37.788746 -143.536921 0.00109 -0.018353 0.006978 -6.148354 33.72293 -5.591279 25.540533 -38.087197 24.597734 11.951486 -29.405669 14.008176 179.989914 75.750541 0.006901 149.788723 -0.389131 -89.331745 -78.768917 5.331477 -160.059228 2.73405 46.09595 -89.350163 0.0 -0.000899 0.000944 16.003074 0.686822 -180.0 1.652834 -41.871141 -174.575624 80.443513 12.524289 -1.70771
